# 3ds Max Wavefront OBJ Exporter v0.97b - (c)2007 guruware
# File Created: 19.11.2015 00:54:01

mtllib 3d-model.mtl

#
# object Layer0_001
#

v  -19.9409 0.0000 -12.3032
v  -20.0197 0.0000 12.3819
v  -20.0197 0.0000 -12.3819
v  20.0197 0.0000 -12.3819
v  19.9409 0.0000 -12.3032
v  19.9409 0.0000 12.3031
v  20.0197 0.0000 12.3819
v  -19.9409 0.0000 12.3031
v  20.0197 2.9528 12.3819
v  -20.0197 2.9528 12.3819
v  -19.9409 2.9528 12.3031
v  -20.0197 2.9528 -12.3819
v  19.9409 2.9528 12.3031
v  19.9409 2.9528 -12.3032
v  20.0197 2.9528 -12.3819
v  -19.9409 2.9528 -12.3032
v  18.4922 2.7559 9.9883
v  18.4922 2.9528 9.9883
v  18.4922 2.9528 -10.8544
v  18.4922 2.7559 -10.8544
v  -18.4922 2.7559 -10.8544
v  -18.4922 2.9528 -10.8544
v  -18.4922 2.9528 9.9883
v  -18.4922 2.7559 9.9883
v  -19.0118 0.0000 -2.3358
v  -13.8936 0.0000 -2.3358
v  -12.9968 0.0000 2.9121
v  -4.3353 0.0000 2.9121
v  -4.3353 0.0000 7.2428
v  6.5480 0.0000 4.7778
v  8.1228 0.0000 4.7778
v  8.1228 0.0000 7.5337
v  6.5480 0.0000 7.5337
v  -12.9968 0.0000 7.2428
v  -13.8936 0.0000 7.1131
v  -19.0118 0.0000 7.1131
v  -18.0476 0.7874 7.1131
v  -18.0476 0.7874 -2.3358
v  -13.8936 0.7874 -2.3358
v  -13.8936 0.7874 7.1131
v  -12.9968 0.2756 7.2428
v  -12.9968 0.2756 2.9121
v  -4.3353 0.2756 2.9121
v  -4.3353 0.2756 7.2428
v  6.5480 0.2756 7.5337
v  6.5480 0.2756 4.7778
v  8.1228 0.2756 4.7778
v  8.1228 0.2756 7.5337
# 48 vertices

vn 0.0000 -1.0000 -0.0000
vn 0.0000 0.0000 1.0000
vn 0.0000 1.0000 -0.0000
vn -1.0000 0.0000 -0.0000
vn 0.0000 0.0000 -1.0000
vn 1.0000 0.0000 -0.0000
vn -0.0000 1.0000 0.0000
vn -1.0000 -0.0000 -0.0000
vn 0.6325 -0.7745 -0.0000
# 9 vertex normals

vt 0.0000 0.0000 0.0000
vt 0.0608 1.2211 0.0000
vt 0.0265 1.9238 0.0000
vt 0.0265 1.1481 0.0000
vt 0.9695 1.1481 0.0000
vt 0.9352 1.2211 0.0000
vt 0.9352 1.8782 0.0000
vt 0.9695 1.9238 0.0000
vt 0.0608 1.8782 0.0000
vt -0.0549 0.6224 0.0000
vt -0.0330 0.1624 0.0000
vt -0.0330 0.9356 0.0000
vt -0.9730 0.9356 0.0000
vt -0.1756 0.6224 0.0000
vt -0.1967 0.4575 0.0000
vt -0.4008 0.4575 0.0000
vt -0.4008 0.3214 0.0000
vt -0.6573 0.3989 0.0000
vt -0.6944 0.3989 0.0000
vt -0.6944 0.3123 0.0000
vt -0.9730 0.1624 0.0000
vt -0.6573 0.3123 0.0000
vt -0.1967 0.3214 0.0000
vt -0.1756 0.3255 0.0000
vt -0.0549 0.3255 0.0000
vt -0.0777 0.3255 0.0000
vt -0.0777 0.6224 0.0000
vt -2.7782 3.5030 0.0000
vt -2.8989 3.5030 0.0000
vt -2.8761 3.4783 0.0000
vt -2.7782 3.4783 0.0000
vt -0.0549 3.5030 0.0000
vt -0.1756 3.5030 0.0000
vt -0.1756 3.4783 0.0000
vt -0.0777 3.4783 0.0000
vt -3.7905 3.5030 0.0000
vt -3.7905 3.4783 0.0000
vt -3.5678 3.4783 0.0000
vt -3.5678 3.5030 0.0000
vt 0.8367 4.9374 0.0000
vt 0.6140 4.9374 0.0000
vt 0.6140 4.8983 0.0000
vt 0.8367 4.8983 0.0000
vt -3.7935 3.5030 0.0000
vt -3.7935 3.4944 0.0000
vt -3.6915 3.4944 0.0000
vt -3.6915 3.5030 0.0000
vt -2.5530 3.5030 0.0000
vt -2.7571 3.5030 0.0000
vt -2.7571 3.4944 0.0000
vt -2.5530 3.4944 0.0000
vt 0.8397 3.4944 0.0000
vt 0.8397 3.5030 0.0000
vt 0.7377 3.5030 0.0000
vt 0.7377 3.4944 0.0000
vt -0.1967 3.4944 0.0000
vt -0.1967 3.5030 0.0000
vt -0.4008 3.5030 0.0000
vt -0.4008 3.4944 0.0000
vt 0.8466 3.4944 0.0000
vt 0.8466 3.5030 0.0000
vt 0.7816 3.5030 0.0000
vt 0.7816 3.4944 0.0000
vt -0.6573 3.5030 0.0000
vt -0.6944 3.5030 0.0000
vt -0.6944 3.4944 0.0000
vt -0.6573 3.4944 0.0000
vt -3.8004 3.5030 0.0000
vt -3.8004 3.4944 0.0000
vt -3.7354 3.4944 0.0000
vt -3.7354 3.5030 0.0000
vt -2.2594 3.5030 0.0000
vt -2.2965 3.5030 0.0000
vt -2.2965 3.4944 0.0000
vt -2.2594 3.4944 0.0000
# 75 texture coords

g Layer0_001
usemtl Color_007
s off
f 1/1/1 2/1/1 3/1/1 4/1/1 
f 5/1/1 1/1/1 4/1/1 6/1/1 
f 6/1/1 4/1/1 7/1/1 8/1/1 
f 8/1/1 7/1/1 2/1/1 1/1/1 
f 2/1/2 7/1/2 9/1/2 10/1/2 
f 11/1/3 12/1/3 10/1/3 9/1/3 
f 13/1/3 11/1/3 9/1/3 14/1/3 
f 14/1/3 9/1/3 15/1/3 16/1/3 
f 16/1/3 15/1/3 12/1/3 11/1/3 
f 2/1/4 10/1/4 12/1/4 3/1/4 
f 4/1/5 3/1/5 12/1/5 15/1/5 
f 9/1/6 7/1/6 4/1/6 15/1/6 
f 17/1/4 18/1/4 19/1/4 20/1/4 
f 21/1/2 20/1/2 19/1/2 22/1/2 
f 23/1/6 24/1/6 21/1/6 22/1/6 
f 17/1/5 24/1/5 23/1/5 18/1/5 
usemtl drop_result2
f 23/2/7 16/3/7 11/4/7 13/5/7 
f 18/6/7 23/2/7 13/5/7 19/7/7 
f 19/7/7 13/5/7 14/8/7 22/9/7 
f 22/9/7 14/8/7 16/3/7 23/2/7 
f 21/9/7 24/2/7 17/6/7 20/7/7 
usemtl drop_result3
f 25/10/1 8/11/1 1/12/1 5/13/1 
f 26/14/1 25/10/1 5/13/1 27/15/1 
f 28/16/1 27/15/1 5/13/1 29/17/1 
f 30/18/1 29/17/1 5/13/1 31/19/1 
f 32/20/1 31/19/1 5/13/1 6/21/1 
f 33/22/1 32/20/1 6/21/1 29/17/1 
f 34/23/1 29/17/1 6/21/1 35/24/1 
f 36/25/1 35/24/1 6/21/1 8/11/1 
f 36/25/1 8/11/1 25/10/1 
f 27/15/1 34/23/1 35/24/1 26/14/1 
f 33/22/1 29/17/1 30/18/1 
f 37/26/1 38/27/1 39/14/1 40/24/1 
f 35/28/5 36/29/5 37/30/5 40/31/5 
f 25/32/2 26/33/2 39/34/2 38/35/2 
f 35/36/8 40/37/8 39/38/8 26/39/8 
f 36/40/9 25/41/9 38/42/9 37/43/9 
f 41/23/1 42/15/1 43/16/1 44/17/1 
f 29/44/8 44/45/8 43/46/8 28/47/8 
f 29/48/5 34/49/5 41/50/5 44/51/5 
f 41/52/6 34/53/6 27/54/6 42/55/6 
f 42/56/2 27/57/2 28/58/2 43/59/2 
f 45/22/1 46/18/1 47/19/1 48/20/1 
f 45/60/6 33/61/6 30/62/6 46/63/6 
f 30/64/2 31/65/2 47/66/2 46/67/2 
f 32/68/8 48/69/8 47/70/8 31/71/8 
f 32/72/5 33/73/5 45/74/5 48/75/5 
# 45 polygons - 2 triangles

